<svg width="1024" height="1024" viewBox="0 0 1024 1024" fill="none" xmlns="http://www.w3.org/2000/svg">
  <rect width="1024" height="1024" rx="220" fill="#F8FAFD"/>
  <g filter="url(#shadow)">
    <rect x="164" y="206" width="696" height="664" rx="96" fill="white"/>
    <rect x="164" y="206" width="696" height="664" rx="96" stroke="#D7DEE9" stroke-width="10"/>
  </g>
  <path d="M414 171H611" stroke="#D7DEE9" stroke-width="12" stroke-linecap="round"/>
  <path d="M687 171H811C838.614 171 861 193.386 861 221V226" stroke="#D7DEE9" stroke-width="12" stroke-linecap="round"/>
  <path d="M214 226V221C214 193.386 236.386 171 264 171H389" stroke="#D7DEE9" stroke-width="12" stroke-linecap="round"/>
  <rect x="442" y="104" width="140" height="120" rx="24" fill="url(#clipBlue)"/>
  <rect x="442" y="104" width="140" height="120" rx="24" stroke="#4D8FEE" stroke-width="10"/>
  <rect x="402" y="178" width="220" height="52" rx="26" fill="white" stroke="#D7DEE9" stroke-width="10"/>

  <g stroke="#4F5B69" stroke-width="12" stroke-linecap="round" stroke-linejoin="round">
    <path d="M390 546C366 520 344 458 344 390C344 314 401 274 447 353L503 420"/>
    <path d="M636 546C660 520 682 458 682 390C682 314 625 274 579 353L523 420"/>
    <path d="M426 432C472 414 554 414 600 432"/>
    <circle cx="434" cy="530" r="62"/>
    <circle cx="592" cy="530" r="62"/>
    <path d="M496 530H530"/>
    <circle cx="434" cy="530" r="17" fill="#4F5B69" stroke="none"/>
    <circle cx="592" cy="530" r="17" fill="#4F5B69" stroke="none"/>
    <path d="M500 608H527"/>
    <path d="M502 616L488 632"/>
    <path d="M525 616L541 632"/>
    <path d="M500 608C500 592 526 592 526 608"/>
    <path d="M250 609H312"/>
    <path d="M250 648H305"/>
    <path d="M776 609H714"/>
    <path d="M776 648H721"/>
    <path d="M330 685C374 766 488 824 614 788"/>
  </g>

  <defs>
    <filter id="shadow" x="136" y="186" width="752" height="724" filterUnits="userSpaceOnUse" color-interpolation-filters="sRGB">
      <feFlood flood-opacity="0" result="BackgroundImageFix"/>
      <feColorMatrix in="SourceAlpha" type="matrix" values="0 0 0 0 0 0 0 0 0 0 0 0 0 0 0 0 0 0 127 0" result="hardAlpha"/>
      <feOffset dy="14"/>
      <feGaussianBlur stdDeviation="14"/>
      <feColorMatrix type="matrix" values="0 0 0 0 0.72 0 0 0 0 0.77 0 0 0 0 0.84 0 0 0 0.28 0"/>
      <feBlend mode="normal" in2="BackgroundImageFix" result="effect1_dropShadow_1_2"/>
      <feBlend mode="normal" in="SourceGraphic" in2="effect1_dropShadow_1_2" result="shape"/>
    </filter>
    <linearGradient id="clipBlue" x1="512" y1="104" x2="512" y2="224" gradientUnits="userSpaceOnUse">
      <stop stop-color="#6FAEFF"/>
      <stop offset="1" stop-color="#4D8FEE"/>
    </linearGradient>
  </defs>
</svg>
